<?xml version="1.0" encoding="UTF-8"?>
<svg width="994px" height="611px" viewBox="0 0 994 611" version="1.1" xmlns="http://www.w3.org/2000/svg" xmlns:xlink="http://www.w3.org/1999/xlink">
    <!-- Generator: Sketch 63.1 (92452) - https://sketch.com -->
    <title>Divum_Logo</title>
    <desc>Created with Sketch.</desc>
    <defs>
        <polygon id="path-1" points="0.06 0.595111111 695 0.595111111 695 276.94 0.06 276.94"></polygon>
    </defs>
    <g id="Page-1" stroke="none" stroke-width="1" fill="none" fill-rule="evenodd">
        <g id="Divum_Logo">
            <g id="Group-4" transform="translate(0.000000, 334.000000)">
                <mask id="mask-2" fill="white">
                    <use xlink:href="#path-1"></use>
                </mask>
                <g id="Clip-2"></g>
                <path d="M522.333,9 C522.333,9 522.375,127.875 522.333,165.334 C523.5,228 542.75,244.75 592.667,245.667 C657.5,244.75 659.061,205.365 660,167.334 C660.978,127.761 660,9 660,9 L695,9 C695,9 695,140 695,179.334 C693,225.667 673.667,277 593.333,277 C500.667,277 491.333,216.667 488.333,184.334 C488,143 488.333,9 488.333,9 L522.333,9" id="Fill-1" fill="#48924A" mask="url(#mask-2)"></path>
                <path d="M7.10542736e-14,1 C7.10542736e-14,1 87.39,0.089 116.5,1 C138.326,1.682 169.151,4.297 194.352,40.605 C221,79 236,170.5 187.96,233 C165.995,261.575 133.319,263.939 113,264.5 C84.761,265.278 7.10542736e-14,264.5 7.10542736e-14,264.5 L7.10542736e-14,264.5 Z M113.7,33.75 L35.7,33.75 L35.7,33.75 L35.7,235.751 L110.7,235.751 L110.7,235.751 C128.708,235.751 162.681,222.21 175.295,191.904 C185.522,167.334 186.923,110.097 175.7,83.75 C160.188,47.334 133.612,33.75 113.7,33.75 Z" id="Combined-Shape" fill="#C53A2F" mask="url(#mask-2)"></path>
            </g>
            <polygon id="Fill-6" fill="#4D9CC7" points="245 599.387 280.5 599.387 280.5 334.054 245 334.054"></polygon>
            <polyline id="Fill-7" fill="#6C71A6" points="775 607 775 384 851.667 607 883.333 607 959.667 387 959.667 607 993.667 607 993.667 343 944.5 343 869.251 568.833 794.333 343 741.667 343 741.667 607 775 607"></polyline>
            <path d="M452.71,81.652 C452.71,126.571 422.415,162.985 385.044,162.985 C347.673,162.985 317.377,126.571 317.377,81.652 C317.377,36.732 347.673,0.318 385.044,0.318 C422.415,0.318 452.71,36.732 452.71,81.652" id="Fill-8" fill="#D87234"></path>
            <path d="M385.878,191.843 C516.628,191.836 660.128,241.845 660.128,241.845 L660.128,241.845 L651.128,265.595 C651.128,265.595 574.128,241.345 551.628,237.593 C471.628,272.845 441.47,333.578 425.628,377.345 C396.128,458.845 400.128,598.845 400.128,598.845 L400.128,598.845 L370.378,598.845 C370.378,598.845 377.838,441.595 323.838,331.595 C309.334,302.048 252.512,251.443 212.012,233.693 C183.512,237.943 97.628,263.595 97.628,263.595 L97.628,263.595 L89.628,239.845 C89.628,239.845 215.128,191.836 385.878,191.843 Z M384.045,215.275 C320.794,215.275 256.128,224.609 256.128,224.609 C256.128,224.609 303.892,250.214 340.46,308.275 C378.461,368.609 385.711,430.275 385.711,430.275 C385.711,430.275 391.461,376.943 430.461,307.609 C461.99,251.556 511.961,227.277 511.961,227.277 C511.961,227.277 424.127,215.275 384.045,215.275 Z" id="Combined-Shape" fill="#D77234"></path>
        </g>
    </g>
</svg>