<?xml version="1.0" encoding="UTF-8"?>
<svg width="136px" height="136px" viewBox="0 0 136 136" version="1.1" xmlns="http://www.w3.org/2000/svg" xmlns:xlink="http://www.w3.org/1999/xlink">
    <!-- Generator: Sketch 63.1 (92452) - https://sketch.com -->
    <title>Group 75</title>
    <desc>Created with Sketch.</desc>
    <defs>
        <path d="M135.665,68.446 C135.665,105.725 105.444,135.946 68.165,135.946 C30.886,135.946 0.665,105.725 0.665,68.446 C0.665,31.167 30.886,0.946 68.165,0.946 C105.444,0.946 135.665,31.167 135.665,68.446" id="path-1"></path>
        <linearGradient x1="49.9999259%" y1="92.7347407%" x2="49.9999259%" y2="-7.26525926%" id="linearGradient-3">
            <stop stop-color="#78CD51" offset="0%"></stop>
            <stop stop-color="#9FFB84" offset="100%"></stop>
        </linearGradient>
    </defs>
    <g id="MAIN-FLOWS--Final" stroke="none" stroke-width="1" fill="none" fill-rule="evenodd">
        <g id="Group-75">
            <g id="Group-30">
                <mask id="mask-2" fill="white">
                    <use xlink:href="#path-1"></use>
                </mask>
                <g id="Clip-29"></g>
                <path d="M135.665,68.446 C135.665,105.725 105.444,135.946 68.165,135.946 C30.886,135.946 0.665,105.725 0.665,68.446 C0.665,31.167 30.886,0.946 68.165,0.946 C105.444,0.946 135.665,31.167 135.665,68.446" id="Fill-28" fill="url(#linearGradient-3)" mask="url(#mask-2)"></path>
            </g>
            <path d="M89.867,76.021 C88.797,75.485 83.537,72.897 82.556,72.541 C81.575,72.184 80.862,72.005 80.148,73.076 C79.436,74.146 77.385,76.556 76.761,77.27 C76.137,77.983 75.513,78.073 74.443,77.537 C73.373,77.002 69.926,75.873 65.839,72.229 C62.658,69.393 60.511,65.89 59.887,64.819 C59.263,63.748 59.82,63.169 60.355,62.636 C60.837,62.157 61.426,61.387 61.961,60.762 C62.496,60.138 62.674,59.691 63.03,58.978 C63.388,58.264 63.209,57.639 62.941,57.104 C62.674,56.568 60.534,51.304 59.643,49.162 C58.774,47.077 57.893,47.359 57.235,47.326 C56.612,47.295 55.898,47.289 55.185,47.289 C54.472,47.289 53.313,47.556 52.332,48.627 C51.351,49.698 48.587,52.285 48.587,57.55 C48.587,62.814 52.421,67.9 52.956,68.614 C53.491,69.328 60.5,80.132 71.233,84.765 C73.786,85.867 75.779,86.525 77.333,87.018 C79.896,87.832 82.229,87.717 84.072,87.442 C86.127,87.135 90.402,84.854 91.294,82.355 C92.186,79.857 92.186,77.716 91.918,77.27 C91.65,76.824 90.937,76.556 89.867,76.021 Z M70.345,102.667 L70.33,102.667 C63.944,102.665 57.681,100.95 52.216,97.708 L50.916,96.937 L37.446,100.469 L41.042,87.34 L40.195,85.994 C36.633,80.329 34.751,73.782 34.7539964,67.059 C34.762,47.442 50.728,31.482 70.359,31.482 C79.865,31.486 88.801,35.192 95.521,41.917 C102.24,48.642 105.938,57.581 105.936001,67.088 C105.928,86.707 89.961,102.667 70.345,102.667 Z M100.635,36.807 C92.551,28.715 81.799,24.257 70.345,24.252 C46.742,24.252 27.533,43.454 27.524,67.057 C27.521,74.601 29.492,81.965 33.24,88.457 L27.165,110.639 L49.865,104.687 C56.119,108.097 63.161,109.894 70.327,109.897 L70.345,109.897 C93.944,109.897 113.155,90.693 113.165,67.091 C113.17,55.653 108.72,44.897 100.635,36.807 L100.635,36.807 Z" id="Fill-31" fill="#FFFFFF"></path>
        </g>
    </g>
</svg>